<?xml version="1.0" encoding="utf-8"?>
<!-- Generator: Adobe Illustrator 19.0.0, SVG Export Plug-In . SVG Version: 6.00 Build 0)  -->
<svg version="1.1" id="Layer_1" xmlns="http://www.w3.org/2000/svg" xmlns:xlink="http://www.w3.org/1999/xlink" x="0px" y="0px"
	 viewBox="206 -206 512 512" style="enable-background:new 206 -206 512 512;" xml:space="preserve">
<style type="text/css">
	.st0{fill:#FDFEFE;}
	.st1{fill:#2E2E30;}
	.st2{fill:#F5903D;}
	.st3{fill:#010201;fill-opacity:0.3;}
	.st4{fill:#FBAE3A;}
	.st5{fill:#FFFFFF;stroke:#2E2E30;stroke-width:22;stroke-miterlimit:10;}
</style>
<title></title>
<desc></desc>
<g id="SVG">
	<g id="Cocktail">
		<g transform="translate(38.000000, 0.000000)">
			<path id="Fill-1" class="st0" d="M630.1-109.1c0,14.9-75.9,27.1-169.5,27.1C367-82.1,291-94.2,291-109.1s75.9-27.1,169.6-27.1
				C554.2-136.2,630.1-124.1,630.1-109.1"/>
			<path id="Fill-3" class="st1" d="M318.5-100.8c15.7,6.4,63.2,15.1,142.1,15.1s126.4-8.6,142.1-15.1
				c-15.7-6.4-63.2-15.1-142.1-15.1S334.2-107.2,318.5-100.8 M460.6-66c-42.2,0-82-2.6-112.1-7.4c-37.9-6.1-54.1-14.2-54.1-27.4
				s16.2-21.3,54.1-27.4c30-4.8,69.8-7.4,112.1-7.4s82,2.6,112.1,7.4c37.9,6.1,54.1,14.2,54.1,27.4s-16.2,21.3-54.1,27.4
				C542.6-68.6,502.8-66,460.6-66"/>
			<path id="Fill-5" class="st0" d="M460.6-82.1c-72.7,0-134.8-7.3-158.8-17.6L459.4,39.8L614.9-97.9
				C588.1-88.6,529.1-82.1,460.6-82.1"/>
			<polygon class="st2" points="548.3,-53.3 459.4,25.5 370.3,-53.3 			"/>
			<path class="st3" d="M576.9-78.6L459.4,25.5L438.8,7.3l91.5-81.1C547.4-74.9,563.1-76.6,576.9-78.6z"/>
			<path id="Fill-7" class="st1" d="M341.1-79.1L459.4,25.5L576.9-78.6c-31.2,4.6-72.1,7.2-116.3,7.2
				C414.9-71.4,372.7-74.2,341.1-79.1 M459.4,50.5c-2.5,0-5.1-0.9-7.1-2.7L294.6-91.7c-3.9-3.5-4.8-9.3-1.9-13.7
				c2.8-4.4,8.5-6.2,13.3-4.1c19.5,8.3,74.9,16.7,154.6,16.7c65.1,0,124.3-6,150.7-15.2c4.9-1.7,10.2,0.3,12.8,4.7
				c2.6,4.4,1.7,10-2.1,13.4L466.5,47.8C464.5,49.6,461.9,50.5,459.4,50.5"/>
			<path id="Fill-9" class="st0" d="M552.2,270.2c0,12.6-41,22.8-91.6,22.8c-50.6,0-91.6-10.2-91.6-22.8s41-22.8,91.6-22.8
				C511.2,247.3,552.2,257.6,552.2,270.2"/>
			<path id="Fill-11" class="st1" d="M382,270.2c8.9,5,36,12.1,78.6,12.1c42.6,0,69.7-7.1,78.6-12.1c-8.9-5.1-36-12.2-78.6-12.2
				S390.9,265.1,382,270.2 M460.6,303.7c-17.1,0-102.3-1.6-102.3-33.5c0-31.9,85.3-33.5,102.3-33.5c17.1,0,102.3,1.6,102.3,33.5
				C562.9,302.1,477.7,303.7,460.6,303.7"/>
			<path id="Fill-13" class="st1" d="M459.4,258c-5.9,0-10.7-4.8-10.7-10.7V39.8c0-5.9,4.8-10.7,10.7-10.7c5.9,0,10.7,4.8,10.7,10.7
				v207.5C470.1,253.3,465.3,258,459.4,258"/>
			<path id="Fill-17" class="st4" d="M282.3-192.4c-44.8,9.6-73.3,53.7-63.6,98.3L381-129C371.3-173.6,327.1-202,282.3-192.4"/>
			<path id="Fill-19" class="st1" d="M300-183.6c-5.1,0-10.3,0.5-15.4,1.6c-18.9,4.1-35.1,15.2-45.5,31.4
				c-8.5,13.1-12.4,28.3-11.4,43.6L367.5-137c-5.4-14.4-15.3-26.6-28.5-35.1C327.2-179.6,313.7-183.6,300-183.6 M218.6-83.3
				c-5,0-9.4-3.4-10.5-8.4c-5.3-24.4-0.7-49.4,12.8-70.4c13.6-21,34.5-35.4,59-40.7c24.5-5.3,49.6-0.7,70.6,12.8
				c21,13.5,35.6,34.4,40.8,58.8c0.6,2.8,0.1,5.7-1.5,8.1c-1.5,2.4-4,4.1-6.8,4.7L220.9-83.6C220.1-83.4,219.4-83.3,218.6-83.3"/>
			<path id="Fill-21" class="st4" d="M299.8-111.5l-63.4-53.4"/>
			<path id="Fill-23" class="st1" d="M299.8-100.8c-2.4,0-4.9-0.8-6.9-2.5l-63.4-53.4c-4.5-3.8-5.1-10.6-1.3-15.1
				c3.8-4.5,10.6-5.1,15.1-1.3l63.4,53.4c4.5,3.8,5.1,10.6,1.3,15.1C305.9-102.1,302.9-100.8,299.8-100.8"/>
			<path id="Fill-25" class="st4" d="M299.8-111.5l35.6-74.7"/>
			<path id="Fill-27" class="st1" d="M299.8-100.8c-1.5,0-3.1-0.3-4.6-1c-5.4-2.5-7.6-8.9-5.1-14.2l35.6-74.7
				c2.5-5.3,8.9-7.6,14.3-5.1c5.4,2.5,7.6,8.9,5.1,14.2l-35.6,74.7C307.7-103.1,303.8-100.8,299.8-100.8"/>
			<g>
				<path class="st5" d="M562.3-55.9c0,25.7-20.9,46.6-46.6,46.6c-25.7,0-46.6-20.9-46.6-46.6c0-4,0.5-7.9,1.4-11.6L537-97.3
					C552-89.5,562.3-73.9,562.3-55.9z"/>
				<circle class="st1" cx="503.8" cy="-64.4" r="11.5"/>
			</g>
			<g>
				<path class="st5" d="M354.9-55.9c0,25.7,20.9,46.6,46.6,46.6c25.7,0,46.6-20.9,46.6-46.6c0-4-0.5-7.9-1.4-11.6l-66.5-29.9
					C365.1-89.5,354.9-73.9,354.9-55.9z"/>
				<circle class="st1" cx="413.4" cy="-64.4" r="11.5"/>
			</g>
		</g>
	</g>
</g>
</svg>
