<?xml version="1.0" encoding="utf-8"?>
<!-- Generator: Adobe Illustrator 19.0.0, SVG Export Plug-In . SVG Version: 6.00 Build 0)  -->
<svg version="1.1" id="Capa_1" xmlns="http://www.w3.org/2000/svg" xmlns:xlink="http://www.w3.org/1999/xlink" x="0px" y="0px"
	 viewBox="148 -147.7 395.7 395.7" style="enable-background:new 148 -147.7 395.7 395.7;" xml:space="preserve">
<style type="text/css">
	.st0{fill:#666666;}
	.st1{fill:#B3B3B3;}
	.st2{fill:#E0974F;}
	.st3{fill:#2E2E30;}
	.st4{fill:#FFFFFF;stroke:#2E2E30;stroke-width:22;stroke-miterlimit:10;}
</style>
<g id="XMLID_29_">
	<g>
		<path class="st0" d="M296,45.1c10.1,0,18.3,8.2,18.3,18.4c0,10.1-8.2,18.3-18.3,18.3c-10.1,0-18.4-8.2-18.4-18.3
			C277.6,53.3,285.9,45.1,296,45.1z"/>
		<polygon class="st1" points="501,172.7 492.1,194.4 199.5,194.4 190.7,172.7 		"/>
		<polygon class="st1" points="492.1,-94.1 501,-72.4 190.7,-72.4 199.5,-94.1 		"/>
		<path class="st2" d="M253.2,232.8h-12c-6.7-7.1-13-15-18.8-23.4h18.4C244.6,217.7,248.8,225.5,253.2,232.8z"/>
		<path class="st2" d="M304,232.8h-33c-4.8-7.1-9.4-15-13.6-23.4h41.4C300.5,217.7,302.2,225.5,304,232.8z"/>
		<path class="st2" d="M314.1,209.4h63.4c-1.7,8.4-3.5,16.2-5.4,23.4h-52.6C317.6,225.6,315.8,217.8,314.1,209.4z"/>
		<path class="st2" d="M392.8,209.4h41.4c-4.2,8.4-8.8,16.2-13.6,23.4h-33C389.5,225.5,391.2,217.7,392.8,209.4z"/>
		<path class="st2" d="M450.9,209.4h18.4c-5.8,8.4-12.1,16.2-18.8,23.4h-12C442.9,225.5,447,217.7,450.9,209.4z"/>
		<path class="st2" d="M469.3-109.1h-18.4c-3.9-8.3-8-16.1-12.5-23.4h12C457.2-125.3,463.4-117.5,469.3-109.1z"/>
		<path class="st2" d="M434.2-109.1h-41.4c-1.6-8.3-3.3-16.1-5.2-23.4h33C425.5-125.3,430-117.5,434.2-109.1z"/>
		<path class="st2" d="M377.5-109.1h-63.4c1.7-8.4,3.5-16.2,5.4-23.4h52.6C374.1-125.2,375.9-117.4,377.5-109.1z"/>
		<path class="st2" d="M271-132.4h33c-1.8,7.3-3.6,15.1-5.2,23.4h-41.4C261.7-117.5,266.2-125.3,271-132.4z"/>
		<path class="st2" d="M241.2-132.4h12c-4.4,7.3-8.6,15.1-12.4,23.4h-18.4C228.2-117.5,234.5-125.3,241.2-132.4z"/>
		<path class="st2" d="M496.4-57.4c12.7,33,19.5,70.1,19.5,107.6s-6.7,74.6-19.5,107.6h-27c8.9-33.3,13.6-70.2,13.6-107.6
			s-4.7-74.3-13.6-107.6H496.4z"/>
		<path class="st2" d="M453.9-57.4c9.2,33,14.1,70.1,14.1,107.6c0,37.5-4.9,74.5-14.1,107.6h-53.4c3.6-33.2,5.6-70.1,5.6-107.6
			s-1.9-74.4-5.6-107.6H453.9z"/>
		<path class="st2" d="M385.4-57.4c3.7,33,5.7,70.1,5.7,107.6c0,37.5-1.9,74.5-5.7,107.6h-79.1c-2.2-19.4-3.8-40-4.7-61.4
			c15.7-2.7,27.7-16.4,27.7-32.9c0-16.8-12.4-30.6-28.5-33c0.6-30.9,2.4-60.4,5.5-87.8H385.4z"/>
		<path class="st2" d="M237.8-57.4h53.4c-3.1,27.9-4.9,57.8-5.4,89.1c-13.4,4.3-23.2,16.9-23.2,31.8c0,15.1,10.1,27.9,23.9,32
			c0.9,21.7,2.5,42.6,4.6,62.3h-53.4c-9.2-33-14.1-70.1-14.1-107.6C223.7,12.7,228.5-24.4,237.8-57.4z"/>
		<path class="st2" d="M195.2-57.4h27c-8.9,33.3-13.6,70.2-13.6,107.6s4.7,74.3,13.6,107.6h-27c-12.7-33-19.5-70.1-19.5-107.6
			S182.5-24.4,195.2-57.4z"/>
		<path class="st3" d="M512.5-57.4c12.1,33.3,18.5,70.3,18.5,107.6s-6.4,74.2-18.5,107.6c2.4,0.1,4.6,1.3,6,3.3
			c1.4,2.1,1.7,4.7,0.7,7l-15,36.7c-1.2,2.8-3.9,4.6-6.9,4.6h-9.9c-8.4,13.3-17.9,25.5-28.2,36.1c-1.4,1.5-3.4,2.3-5.4,2.3H238
			c-2,0-4-0.8-5.4-2.3c-10.3-10.6-19.8-22.8-28.2-36.1h-9.9c-3,0-5.8-1.8-6.9-4.6l-15-36.7c-0.9-2.3-0.7-4.9,0.7-7
			c1.4-2,3.6-3.2,6-3.3c-12.1-33.3-18.5-70.3-18.5-107.6s6.4-74.2,18.5-107.6c-2.4-0.1-4.6-1.3-6-3.3c-1.4-2.1-1.7-4.7-0.7-7
			l15-36.7c1.1-2.8,3.9-4.7,6.9-4.7h9.9c8.4-13.3,17.9-25.4,28.2-36.1c1.4-1.5,3.4-2.3,5.4-2.3h215.7c2,0,4,0.8,5.4,2.3
			c10.3,10.6,19.8,22.8,28.2,36.1h9.9c3,0,5.8,1.8,6.9,4.7l15,36.7c1,2.3,0.7,4.9-0.7,7C517.1-58.7,514.8-57.5,512.5-57.4z
			 M515.9,50.2c0-37.5-6.7-74.6-19.5-107.6h-27C478.3-24.1,483,12.8,483,50.2s-4.7,74.3-13.6,107.6h27
			C509.2,124.7,515.9,87.7,515.9,50.2z M501-72.4l-8.9-21.7H199.5l-8.9,21.7H501z M492.1,194.4l8.9-21.7H190.7l8.9,21.7H492.1z
			 M450.9-109.1h18.4c-5.8-8.4-12.1-16.2-18.8-23.4h-12C442.9-125.1,447-117.3,450.9-109.1z M469.3,209.4h-18.4
			c-3.9,8.3-8,16.1-12.5,23.4h12C457.2,225.6,463.4,217.8,469.3,209.4z M468,50.2c0-37.5-4.9-74.5-14.1-107.6h-53.4
			c3.6,33.2,5.6,70.1,5.6,107.6s-1.9,74.4-5.6,107.6h53.4C463.1,124.7,468,87.6,468,50.2z M392.8-109.1h41.4
			c-4.2-8.4-8.8-16.2-13.6-23.4h-33C389.5-125.2,391.2-117.4,392.8-109.1z M434.2,209.4h-41.4c-1.6,8.3-3.3,16.1-5.2,23.4h33
			C425.5,225.6,430,217.8,434.2,209.4z M391,50.2c0-37.5-1.9-74.5-5.7-107.6h-79.1c-3.1,27.4-4.9,56.9-5.5,87.8
			c16.1,2.4,28.5,16.2,28.5,33c0,16.5-12,30.2-27.7,32.9c0.9,21.4,2.5,42,4.7,61.4h79.1C389.1,124.7,391,87.6,391,50.2z
			 M314.1-109.1h63.4c-1.7-8.4-3.5-16.2-5.4-23.4h-52.6C317.6-125.2,315.8-117.4,314.1-109.1z M377.5,209.4h-63.4
			c1.7,8.4,3.5,16.2,5.4,23.4h52.6C374.1,225.6,375.9,217.8,377.5,209.4z M314.3,63.4c0-10.1-8.2-18.4-18.3-18.4
			c-10.1,0-18.4,8.2-18.4,18.4c0,10.1,8.2,18.3,18.4,18.3C306.1,81.8,314.3,73.5,314.3,63.4z M304-132.4h-33
			c-4.8,7.1-9.4,14.9-13.6,23.4h41.4C300.5-117.4,302.2-125.2,304-132.4z M271,232.8h33c-1.8-7.3-3.6-15.1-5.2-23.4h-41.4
			C261.7,217.8,266.2,225.6,271,232.8z M291.2-57.4h-53.4c-9.2,33-14.1,70.1-14.1,107.6c0,37.5,4.9,74.5,14.1,107.6h53.4
			c-2.2-19.7-3.7-40.6-4.6-62.3c-13.8-4.1-23.9-16.9-23.9-32c0-14.8,9.7-27.4,23.2-31.8C286.3,0.4,288.1-29.5,291.2-57.4z
			 M253.2-132.4h-12c-6.7,7.1-13,14.9-18.8,23.4h18.4C244.6-117.3,248.8-125.1,253.2-132.4z M241.2,232.8h12
			c-4.4-7.3-8.6-15.1-12.4-23.4h-18.4C228.2,217.8,234.5,225.6,241.2,232.8z M222.2-57.4h-27c-12.7,33-19.5,70.1-19.5,107.6
			s6.7,74.6,19.5,107.6h27c-8.9-33.3-13.6-70.2-13.6-107.6S213.3-24.1,222.2-57.4z"/>
	</g>
</g>
<g>
	<circle class="st4" cx="266.3" cy="-48.1" r="61.8"/>
	<circle class="st3" cx="266.3" cy="-48.1" r="13"/>
</g>
<g>
	<circle class="st4" cx="422.8" cy="-48.1" r="61.8"/>
	<circle class="st3" cx="422.8" cy="-48.1" r="13"/>
</g>
</svg>
