<?xml version="1.0" encoding="utf-8"?>
<!-- Generator: Adobe Illustrator 19.0.0, SVG Export Plug-In . SVG Version: 6.00 Build 0)  -->
<svg version="1.1" id="Capa_1" xmlns="http://www.w3.org/2000/svg" xmlns:xlink="http://www.w3.org/1999/xlink" x="0px" y="0px"
	 viewBox="-263 -205 512 512" style="enable-background:new -263 -205 512 512;" xml:space="preserve">
<style type="text/css">
	.st0{fill:#2E2E30;}
	.st1{fill:#CC6329;}
	.st2{fill:#8C3C18;}
	.st3{fill:#FFFFFF;stroke:#2E2E30;stroke-width:22;stroke-miterlimit:10;}
</style>
<path class="st0" d="M126.7-173.8c-35.8-4.2-83.3-6.5-133.7-6.5s-97.9,2.3-133.7,6.5c-54,6.3-64.6,14.5-64.6,26.5
	c0,0.8,0.1,1.6,0.2,2.4c0,0.3,0,0.6,0.1,0.9l11.9,142.4l2,24.2c0,0.1,0,0.1,0,0.1l14.8,176.9c0,0.1,0,0.1,0,0.2l3.8,45.2l0.4,4.4
	c0,11.6,10.1,19.7,61.6,26.5c31,4.1,69.8,6.6,103.7,6.6s72.6-2.5,103.7-6.6c51.5-6.8,61.6-14.9,61.6-25.6l2.4-28.8l16.6-199.5
	c0.1-0.5,0.1-1.1,0.1-1.6l2.7-31.9l11-132.4c0.1-0.3,0-0.5,0.1-0.8c0.1-0.8,0.2-1.6,0.2-2.4C191.3-159.3,180.8-167.5,126.7-173.8z
	 M-7-158.3c77.3,0,134.4,5.4,161.6,11c-27.2,5.6-84.3,11-161.6,11s-134.4-5.4-161.6-11C-141.4-152.9-84.3-158.3-7-158.3z M86.2,19.9
	c0.9,1,1.5,2.1,2,3.2c0.2,0.4,0.3,0.9,0.4,1.3c0.1,0.3,0.1,0.7,0.2,1.1c-25.1,2-56.5,3.3-94,3.4c0-0.1-0.1-0.1-0.1-0.2
	c0-0.1,0-0.2,0-0.3c-1.3-4-0.4-8.5,2.9-11.5L8.4,6.8L23.7-7.5l11.7-10.9c2.1-2,4.8-3,7.5-3c2.9,0,5.9,1.2,8,3.5l8.8,9.4L86.2,19.9z
	 M-29.8,50.8c1.6,4.1,0.8,8.9-2.7,12.1l-37.8,35.3c-2.1,2-4.9,3-7.9,2.9c-3-0.1-5.7-1.3-7.7-3.5l-35.3-37.8c-3.7-4-3.7-9.8-0.6-14
	C-89.7,49.1-53.5,50.3-29.8,50.8z M-100.6,25.6l6-5.6l11.7-11c2.1-2,4.8-3,7.5-3c3,0,5.9,1.2,8,3.5l17.5,18.8
	C-68.6,27.7-85.7,26.8-100.6,25.6z M-36.6,10c4.1-0.1,8.2-0.2,12.3-0.2c-0.2,0.3-0.2,0.6-0.4,1c-0.3,0.7-0.6,1.4-0.9,2
	c-0.5,1.1-0.8,2.3-1.2,3.5c-0.2,0.8-0.4,1.5-0.5,2.3c-0.1,0.4-0.2,0.7-0.3,1.1L-36.6,10z M-52.2,112.7l37.8-35.3
	c2-1.9,4.7-2.9,7.5-2.9h0.4c3,0.1,5.7,1.3,7.7,3.5l35.3,37.8c4.1,4.4,3.9,11.4-0.5,15.6l-37.8,35.3c-2.1,2-5,3-7.9,2.9
	c-3-0.1-5.7-1.3-7.7-3.5l-35.3-37.8C-56.9,123.8-56.6,116.9-52.2,112.7z M32.3,70.3L14.1,50.8c14.8-0.2,35.6-0.8,57.4-2.1L47.9,70.8
	C43.4,75,36.4,74.7,32.3,70.3z M-121.5,14.9l-5.5,5.1l-2.9,2.7c0,0-0.1,0-0.1,0c-2.1-0.3-4.1-0.5-6-0.8c-0.3,0-0.5-0.1-0.8-0.1
	c-6.3-0.9-11.4-1.7-15.7-2.5C-144.8,17.8-134.6,16.3-121.5,14.9z M-149,42.3c0.5,0.1,0.9,0.2,1.4,0.2c1,0.1,1.9,0.3,3,0.5
	c-3.2,10.9-0.9,23.1,7.4,31.9l35.3,37.8c6,6.4,14.2,10.2,23,10.5c0.4,0,0.8,0,1.2,0c0.1,0,0.2,0,0.3,0c0.5,7.5,3.4,14.6,8.6,20.2
	l35.3,37.8c6.5,7,15.3,10.5,24.2,10.5c8.1,0,16.2-3,22.5-8.9L51,147.4c6.4-6,10.1-14.2,10.4-23c0.3-8.8-2.8-17.2-8.8-23.7L47.3,95
	c5.8-1.2,11.2-4,15.6-8.1l37.8-35.3c1.8-1.7,3.3-3.5,4.6-5.4c22.3-2.2,37.8-4.8,48.4-7.6l-12.6,151.6C112.1,198,48.8,204-7,204
	s-119.1-6-148.1-13.8l-9.5-113.9l-3.2-37.9C-162.7,39.8-156.5,41.1-149,42.3z M108.7,15c12.9,1.4,22.9,2.9,30.4,4.4
	c-6.8,1.3-15.9,2.8-28.2,4.1c0-0.1,0-0.1,0-0.2c-0.3-2.7-1-5.4-2.1-8C108.8,15.2,108.8,15.1,108.7,15z M136.6,245
	c-14.4,7-81.1,15.4-143.6,15.4c-62.4,0-129.1-8.3-143.6-15.4l-0.1-1.6l-2.5-30.1c36.1,8,98.5,12.7,146.2,12.7
	c47.8,0,110.2-4.7,146.2-12.7l-0.8,9.7L136.6,245z M156.9,0.9C144-2.9,123.1-6.3,89.4-8.9l-0.3-0.3L67-32.9
	c-12.5-13.3-33.4-14-46.7-1.6L-3.5-12.3l-2.6,0c-17.9,0-35.5,0.3-52.6,1c-11.2-6.6-25.4-6-36.1,1.9C-121-7.7-140.1-5.3-154-2.8
	c-6.8,1.3-12.4,2.6-16.9,3.9l-0.3-3.5l-10.2-122.9c25.7,7.4,76.7,10.9,174.4,10.9c97.7,0,148.7-3.6,174.4-10.9L157.9-11L156.9,0.9z"
	/>
<path class="st1" d="M105.3,46.2c22.3-2.2,37.8-4.8,48.4-7.6l-12.6,151.6C112.1,198,48.8,204-7,204s-119.1-6-148.1-13.8l-9.5-113.9
	l-3.2-37.9c5.1,1.4,11.3,2.7,18.8,3.9c0.5,0.1,0.9,0.2,1.4,0.2c1,0.1,1.9,0.3,3,0.5c-3.2,10.9-0.9,23.1,7.4,31.9l35.3,37.8
	c6,6.4,14.2,10.2,23,10.5c0.4,0,0.8,0,1.2,0c0.1,0,0.2,0,0.3,0c0.5,7.5,3.4,14.6,8.6,20.2l35.3,37.8c6.5,7,15.3,10.5,24.2,10.5
	c8.1,0,16.2-3,22.5-8.9L51,147.4c6.4-6,10.1-14.2,10.4-23c0.3-8.8-2.8-17.2-8.8-23.7L47.3,95c5.8-1.2,11.2-4,15.6-8.1l37.8-35.3
	C102.5,50,104,48.1,105.3,46.2z"/>
<path class="st2" d="M-136.8,21.9c-6.3-0.9-11.4-1.7-15.7-2.5c7.6-1.5,17.8-3,31-4.4l-5.5,5.1l-2.9,2.7c0,0-0.1,0-0.1,0
	c-2.1-0.3-4.1-0.5-6-0.8C-136.2,21.9-136.5,21.9-136.8,21.9z"/>
<path class="st2" d="M-27.6,19.7l-9.1-9.7c4.1-0.1,8.2-0.2,12.3-0.2c-0.2,0.3-0.2,0.6-0.4,1c-0.3,0.7-0.6,1.4-0.9,2
	c-0.5,1.1-0.8,2.3-1.2,3.5c-0.2,0.8-0.4,1.5-0.5,2.3C-27.4,19-27.5,19.3-27.6,19.7z"/>
<path class="st2" d="M108.8,15.3c0-0.1,0-0.2-0.1-0.3c12.9,1.4,22.9,2.9,30.4,4.4c-6.8,1.3-15.9,2.8-28.2,4.1c0-0.1,0-0.1,0-0.2
	C110.5,20.5,109.8,17.9,108.8,15.3z"/>
<g>
	<path class="st3" d="M14.1-82.7C13.6-62.9,19-44.4,28.8-28.8c21.4-8.9,49.7-13.9,80.6-13.1c30.9,0.8,58.9,7.4,79.7,17.4
		c10.6-15,17.1-33.2,17.6-52.9c1.4-53.2-40.5-97.5-93.7-98.9C59.9-177.8,15.6-135.8,14.1-82.7z"/>
	<circle class="st0" cx="93" cy="-66.1" r="21.3"/>
</g>
<g>
	<path class="st3" d="M-26.7-82.7c0.5,19.7-4.9,38.3-14.7,53.8c-21.4-8.9-49.7-13.9-80.6-13.1c-30.9,0.8-58.9,7.4-79.7,17.4
		c-10.6-15-17.1-33.2-17.6-52.9c-1.4-53.2,40.5-97.5,93.7-98.9C-72.5-177.8-28.2-135.8-26.7-82.7z"/>
	<circle class="st0" cx="-105.6" cy="-66.1" r="21.3"/>
</g>
</svg>
