<?xml version="1.0" encoding="utf-8"?>
<!-- Generator: Adobe Illustrator 19.0.0, SVG Export Plug-In . SVG Version: 6.00 Build 0)  -->
<svg version="1.1" id="Capa_1" xmlns="http://www.w3.org/2000/svg" xmlns:xlink="http://www.w3.org/1999/xlink" x="0px" y="0px"
	 viewBox="-248.5 -205.5 512 512" style="enable-background:new -248.5 -205.5 512 512;" xml:space="preserve">
<style type="text/css">
	.st0{fill:#2E2E30;}
	.st1{fill:#7F0A18;}
	.st2{fill:#A8162F;}
	.st3{fill:#FFFFFF;stroke:#2E2E30;stroke-width:22;stroke-miterlimit:10;}
</style>
<g>
	<circle class="st0" cx="-10.5" cy="41.5" r="9"/>
	<circle class="st0" cx="-79.2" cy="17.4" r="9"/>
	<circle class="st0" cx="7.5" cy="86.4" r="9"/>
	<circle class="st0" cx="77.7" cy="37.6" r="9"/>
	<circle class="st0" cx="-56.8" cy="55.6" r="9"/>
	<circle class="st0" cx="25.5" cy="32.5" r="9"/>
	<path class="st0" d="M16.5,243.7V126.4c33.1-2.4,63.9-17.6,85.7-43c23.7-27.6,34.2-64.1,28.8-100.1l-24.6-162
		c-0.2-1.3-0.8-2.5-1.5-3.6C93-205.2,11.2-205.5,7.5-205.5c-3.7,0-84.8,0.3-97.2,22.9c-0.9,1.2-1.5,2.6-1.7,4.1l-22.9,151
		c-0.4,1.4-0.7,2.8-0.7,4.2c0,0.1,0,0.2,0.1,0.3l-1,6.3c-5.5,36,5,72.5,28.8,100.1c21.8,25.3,52.6,40.6,85.7,43v117.4
		c-28.7,0.6-98.8,4.9-98.8,31.3c0,29.9,89.8,31.4,107.8,31.4s107.8-1.5,107.8-31.4C115.3,248.6,45.2,244.4,16.5,243.7z M83.9-177
		c-0.1,0-0.2,0.1-0.3,0.1c-1.2,0.4-2.6,0.8-4.1,1.2c-0.1,0-0.3,0.1-0.4,0.1c-1.6,0.4-3.4,0.8-5.4,1.2c-0.1,0-0.1,0-0.2,0
		c-2,0.4-4.2,0.8-6.6,1.1c-0.4,0.1-0.7,0.1-1.1,0.2c-2.4,0.4-5,0.7-7.8,1c-0.4,0-0.8,0.1-1.2,0.1c-2.9,0.3-5.9,0.6-9.1,0.9
		c-0.1,0-0.2,0-0.4,0c-3.3,0.3-6.8,0.5-10.5,0.7c-0.7,0-1.3,0.1-2,0.1c-3.7,0.2-7.5,0.3-11.6,0.4c-0.7,0-1.5,0-2.2,0
		c-4.3,0.1-8.8,0.2-13.6,0.2c-4.8,0-9.2-0.1-13.5-0.2c-0.8,0-1.6,0-2.4-0.1c-4.1-0.1-7.9-0.3-11.6-0.4c-0.7,0-1.3-0.1-2-0.1
		c-3.6-0.2-7.1-0.4-10.3-0.7c-0.1,0-0.2,0-0.2,0c-3.3-0.3-6.3-0.6-9.2-0.9c-0.5-0.1-1-0.1-1.5-0.2c-2.7-0.3-5.3-0.7-7.6-1
		c-0.4-0.1-0.7-0.1-1.1-0.2c-2.3-0.4-4.5-0.7-6.5-1.1c0,0-0.1,0-0.1,0c-2-0.4-3.8-0.8-5.4-1.2c-0.2-0.1-0.5-0.1-0.7-0.2
		c-1.5-0.4-2.9-0.8-4-1.1c-0.1,0-0.1,0-0.2-0.1c11.3-4.8,38.7-10.5,76.4-10.5C45.2-187.5,72.6-181.8,83.9-177z M-76-160.6
		c0.1,0,0.2,0.1,0.3,0.1c1.6,0.6,3.2,1.1,5.1,1.7c0.1,0,0.1,0,0.2,0.1c1.9,0.5,4,1.1,6.3,1.6c0.1,0,0.3,0.1,0.4,0.1
		c2.2,0.5,4.7,0.9,7.2,1.4c0.3,0.1,0.6,0.1,1,0.2c2.6,0.4,5.3,0.8,8.2,1.2c0.5,0.1,0.9,0.1,1.4,0.2c3,0.4,6.1,0.7,9.5,1
		c0.6,0,1.1,0.1,1.7,0.1c3.4,0.3,7.1,0.5,11,0.7c0.6,0,1.1,0.1,1.7,0.1c4.1,0.2,8.3,0.4,12.8,0.5c0.4,0,0.9,0,1.4,0
		c4.8,0.1,9.8,0.2,15.2,0.2s10.4-0.1,15.2-0.2c0.4,0,0.9,0,1.4,0c4.5-0.1,8.8-0.3,12.8-0.5c0.6,0,1.1-0.1,1.7-0.1
		c3.9-0.2,7.5-0.4,11-0.7c0.6,0,1.1-0.1,1.7-0.1c3.4-0.3,6.5-0.6,9.5-1c0.5-0.1,0.9-0.1,1.4-0.2c2.9-0.4,5.7-0.7,8.2-1.2
		c0.3-0.1,0.6-0.1,1-0.2c2.6-0.4,5-0.9,7.3-1.4c0.1,0,0.3-0.1,0.4-0.1c2.3-0.5,4.4-1,6.3-1.6c0.1,0,0.1,0,0.2,0
		c1.9-0.5,3.6-1.1,5.1-1.7c0.1,0,0.2-0.1,0.3-0.1l17.7,116.8C80.4-55.2,30.8-58.2,7.2-58.2c-23.4,0-72.5,3-100.8,14.2L-76-160.6z
		 M109.8-23.6C101-18.8,69.9-11.5,7.2-11.5s-93.8-7.3-102.6-12.1c9.8-6.7,47.6-16.7,102.6-16.7C62.2-40.2,100-30.3,109.8-23.6z
		 M-73.5,71.7C-92.1,50.1-101.1,22.2-98.9-6C-75.8,3.9-31.7,6.5,7.2,6.5C46.5,6.5,91,3.9,113.9-6.2c2.2,28.2-6.8,56.3-25.4,77.9
		c-20.3,23.6-49.9,37.2-81,37.2S-53.2,95.3-73.5,71.7z M7.5,288.5c-50.2,0-80.4-8.1-88.4-13.5c7.5-5,34.6-12.5,79.4-13.4v10.2
		c0,5,4,9,9,9s9-4,9-9v-10.2c44.8,0.9,71.9,8.4,79.4,13.4C87.9,280.4,57.7,288.5,7.5,288.5z"/>
</g>
<path class="st1" d="M7.2-11.5c-62.7,0-93.8-7.3-102.6-12.1c9.8-6.7,47.6-16.7,102.6-16.7c54.9,0,92.8,10,102.6,16.7
	C101-18.8,69.9-11.5,7.2-11.5z"/>
<path class="st2" d="M113.9-6.2C91,3.9,46.5,6.5,7.2,6.5C-31.7,6.5-75.8,3.9-99-6c-2.1,28.2,6.9,56.1,25.4,77.7
	c20.3,23.6,49.9,37.2,81,37.2s60.7-13.6,81-37.2C107.2,50,116.1,22,113.9-6.2z M-79.2,26.4c-5,0-9-4-9-9s4-9,9-9s9,4,9,9
	S-74.3,26.4-79.2,26.4z M-56.8,64.5c-5,0-9-4-9-9c0-5,4-9,9-9c5,0,9,4,9,9C-47.8,60.5-51.8,64.5-56.8,64.5z M-10.5,50.5
	c-5,0-9-4-9-9c0-5,4-9,9-9c5,0,9,4,9,9C-1.5,46.5-5.5,50.5-10.5,50.5z M7.5,95.4c-5,0-9-4-9-9c0-5,4-9,9-9s9,4,9,9
	C16.5,91.4,12.5,95.4,7.5,95.4z M25.5,41.5c-5,0-9-4-9-9c0-5,4-9,9-9c5,0,9,4,9,9C34.5,37.5,30.4,41.5,25.5,41.5z M77.7,46.6
	c-5,0-9-4-9-9c0-5,4-9,9-9c5,0,9,4,9,9C86.7,42.5,82.6,46.6,77.7,46.6z"/>
<circle class="st3" cx="-65.8" cy="-117.8" r="48.3"/>
<circle class="st0" cx="-79.2" cy="-90.1" r="12"/>
<path class="st3" d="M127-117.8c0,26.7-21.6,48.3-48.3,48.3c-26.7,0-48.3-21.6-48.3-48.3c0-12,4.4-23.1,11.7-31.5
	c10.2,2.5,22.9,4,36.6,4s26.3-1.5,36.6-4C122.6-140.8,127-129.8,127-117.8z"/>
<circle class="st0" cx="83.9" cy="-127.8" r="12"/>
</svg>
